<?xml version="1.0" encoding="UTF-8" standalone="no"?>
<!DOCTYPE svg PUBLIC "-//W3C//DTD SVG 1.1//EN" "http://www.w3.org/Graphics/SVG/1.1/DTD/svg11.dtd">
<!-- Generated by Microsoft Visio, SVG Export architecture.svg Page-1 -->
<svg xmlns="http://www.w3.org/2000/svg" xmlns:xlink="http://www.w3.org/1999/xlink" xmlns:ev="http://www.w3.org/2001/xml-events"
		xmlns:v="http://schemas.microsoft.com/visio/2003/SVGExtensions/" width="11in" height="16.5in" viewBox="0 0 792 1188"
		xml:space="preserve" color-interpolation-filters="sRGB" class="st28">
	<v:documentProperties v:langID="1033" v:viewMarkup="false">
		<v:userDefs>
			<v:ud v:nameU="msvNoAutoConnect" v:val="VT0(0):26"/>
			<v:ud v:nameU="msvConvertTheme"/>
		</v:userDefs>
	</v:documentProperties>

	<style type="text/css">
	<![CDATA[
		.st1 {fill:#8db1e2;stroke:#000000;stroke-linecap:round;stroke-linejoin:round;stroke-width:0.24}
		.st2 {fill:#ffffff;stroke:#000000;stroke-linecap:round;stroke-linejoin:round;stroke-width:0.24}
		.st3 {fill:#fbd7bb;stroke:#ff0000;stroke-linecap:round;stroke-linejoin:round;stroke-width:1.5}
		.st4 {fill:#92d050;stroke:#92d050;stroke-linecap:round;stroke-linejoin:round;stroke-width:0.75}
		.st5 {fill:#ffffff;stroke:#000000;stroke-linecap:round;stroke-linejoin:round;stroke-width:0.75}
		.st6 {marker-end:url(#mrkr1-18);stroke:#000000;stroke-linecap:round;stroke-linejoin:round;stroke-width:0.25}
		.st7 {fill:#000000;fill-opacity:1;stroke:#000000;stroke-opacity:1;stroke-width:0.090252707581227}
		.st8 {fill:#ffffff;stroke:none;stroke-linecap:butt;stroke-width:7.2}
		.st9 {fill:#000000;font-family:Calibri;font-size:0.666664em}
		.st10 {fill:none;stroke:none;stroke-linecap:round;stroke-linejoin:round;stroke-width:0.75}
		.st11 {fill:#000000;font-family:Calibri;font-size:1.5em;font-weight:bold}
		.st12 {marker-end:url(#mrkr1-36);stroke:#000000;stroke-dasharray:10.5,7.5;stroke-linecap:round;stroke-linejoin:round;stroke-width:1.5}
		.st13 {fill:#000000;fill-opacity:1;stroke:#000000;stroke-opacity:1;stroke-width:0.37313432835821}
		.st14 {fill:#ffffff}
		.st15 {stroke:#000000;stroke-linecap:round;stroke-linejoin:round;stroke-width:0.24}
		.st16 {fill:#000000;font-family:Calibri;font-size:1.00001em}
		.st17 {font-size:1em}
		.st18 {fill:#000000;font-family:Calibri;font-size:0.833336em}
		.st19 {fill:#ffff00;stroke:#000000;stroke-linecap:round;stroke-linejoin:round;stroke-width:0.24}
		.st20 {fill:#000000;font-family:Calibri;font-size:1.00001em;font-weight:bold}
		.st21 {fill:none;stroke:#000000;stroke-linecap:round;stroke-linejoin:round;stroke-width:0.24}
		.st22 {fill:#ffffff;font-family:Calibri;font-size:1.5em;font-weight:bold}
		.st23 {marker-start:url(#mrkr1-142);stroke:#000000;stroke-linecap:round;stroke-linejoin:round;stroke-width:0.25}
		.st24 {marker-start:url(#mrkr1-142);stroke:#000000;stroke-dasharray:1.75,1.25;stroke-linecap:round;stroke-linejoin:round;stroke-width:0.25}
		.st25 {marker-end:url(#mrkr13-255);stroke:#000000;stroke-linecap:round;stroke-linejoin:round;stroke-width:0.25}
		.st26 {marker-end:url(#mrkr13-261);stroke:#000000;stroke-linecap:round;stroke-linejoin:round;stroke-width:1.5}
		.st27 {marker-end:url(#mrkr13-293);stroke:#000000;stroke-linecap:round;stroke-linejoin:round;stroke-width:1.5}
		.st28 {fill:none;fill-rule:evenodd;font-size:12px;overflow:visible;stroke-linecap:square;stroke-miterlimit:3}
	]]>
	</style>

	<defs id="Markers">
		<g id="lend1">
			<path d="M 1 -1 L 0 0 L 1 1 " style="stroke-linecap:round;stroke-linejoin:round;fill:none"/>
		</g>
		<marker id="mrkr1-18" class="st7" v:arrowType="1" v:arrowSize="2" orient="auto" markerUnits="strokeWidth"
				overflow="visible">
			<use xlink:href="#lend1" transform="scale(-11.08,-11.08) "/>
		</marker>
		<marker id="mrkr1-36" class="st13" v:arrowType="1" v:arrowSize="2" orient="auto" markerUnits="strokeWidth"
				overflow="visible">
			<use xlink:href="#lend1" transform="scale(-2.68,-2.68) "/>
		</marker>
		<marker id="mrkr1-142" class="st7" v:arrowType="1" v:arrowSize="2" orient="auto" markerUnits="strokeWidth"
				overflow="visible">
			<use xlink:href="#lend1" transform="scale(11.08) "/>
		</marker>
		<g id="lend13">
			<path d="M 3 1 L 0 0 L 3 -1 L 3 1 " style="stroke:none"/>
		</g>
		<marker id="mrkr13-255" class="st7" v:arrowType="13" v:arrowSize="2" v:setback="33.24" refX="-33.24" orient="auto"
				markerUnits="strokeWidth" overflow="visible">
			<use xlink:href="#lend13" transform="scale(-11.08,-11.08) "/>
		</marker>
		<marker id="mrkr13-261" class="st13" v:arrowType="13" v:arrowSize="2" v:setback="8.04" refX="-8.04" orient="auto"
				markerUnits="strokeWidth" overflow="visible">
			<use xlink:href="#lend13" transform="scale(-2.68,-2.68) "/>
		</marker>
		<marker id="mrkr13-293" class="st13" v:arrowType="13" v:arrowSize="2" v:setback="0" refX="-0" orient="auto"
				markerUnits="strokeWidth" overflow="visible">
			<use xlink:href="#lend13" transform="scale(-2.68,-2.68) "/>
		</marker>
	</defs>
	<g v:mID="0" v:index="1" v:groupContext="foregroundPage">
		<title>Page-1</title>
		<v:pageProperties v:drawingScale="1" v:pageScale="1" v:drawingUnits="0" v:shadowOffsetX="9" v:shadowOffsetY="-9"/>
		<v:layer v:name="Connector" v:index="0"/>
		<v:layer v:name="Flowchart" v:index="1"/>
		<v:layer v:name="Annotations" v:index="2"/>
		<g id="shape194-1" v:mID="194" v:groupContext="shape" v:layerMember="2" transform="translate(41.04,-302.4)">
			<title>Rectangle.22.194</title>
			<v:userDefs>
				<v:ud v:nameU="visVersion" v:val="VT0(15):26"/>
			</v:userDefs>
			<rect x="0" y="911.88" width="621.36" height="276.12" class="st1"/>
		</g>
		<g id="shape189-3" v:mID="189" v:groupContext="shape" transform="translate(388.8,-425.811)">
			<title>Rectangle.22.189</title>
			<v:userDefs>
				<v:ud v:nameU="visVersion" v:val="VT0(15):26"/>
			</v:userDefs>
			<rect x="0" y="1128.89" width="118.8" height="59.1088" class="st2"/>
		</g>
		<g id="shape183-5" v:mID="183" v:groupContext="shape" transform="translate(551.785,-421.531)">
			<title>Square.23</title>
			<v:userDefs>
				<v:ud v:nameU="visVersion" v:val="VT0(15):26"/>
			</v:userDefs>
			<rect x="0" y="1096.37" width="91.6291" height="91.6291" class="st2"/>
		</g>
		<g id="shape99-7" v:mID="99" v:groupContext="shape" transform="translate(43.2,-590.4)">
			<title>Sheet.99</title>
			<rect x="0" y="939.674" width="610.56" height="248.326" class="st3"/>
		</g>
		<g id="shape97-9" v:mID="97" v:groupContext="shape" transform="translate(57.6,-604.8)">
			<title>Sheet.97</title>
			<rect x="0" y="1065.6" width="322.56" height="122.4" class="st4"/>
		</g>
		<g id="shape36-11" v:mID="36" v:groupContext="shape" transform="translate(216,-619.2)">
			<title>Sheet.36</title>
			<rect x="0" y="1110.37" width="144" height="77.6262" class="st5"/>
		</g>
		<g id="shape52-13" v:mID="52" v:groupContext="shape" v:layerMember="0" transform="translate(309.6,-748.609)">
			<title>Dynamic connector.52</title>
			<desc>Sensing data</desc>
			<v:textBlock v:margins="rect(4,4,4,4)"/>
			<v:textRect cx="7.2" cy="1193.27" width="50.97" height="17.6036"/>
			<path d="M7.2 1188 L7.2 1209.41" class="st6"/>
			<rect v:rectContext="textBkgnd" x="-13.3739" y="1188.47" width="41.1479" height="9.59985" class="st8"/>
			<text x="-13.37" y="1195.67" class="st9" v:langID="1066"><v:paragraph v:horizAlign="1"/><v:tabList/>Sensing data</text>		</g>
		<g id="shape100-21" v:mID="100" v:groupContext="shape" transform="translate(43.2,-806.326)">
			<title>Sheet.100</title>
			<desc>Fog</desc>
			<v:textBlock v:margins="rect(4,4,4,4)"/>
			<v:textRect cx="36" cy="1177.18" width="72" height="21.6442"/>
			<rect x="0" y="1166.36" width="72" height="21.6442" class="st10"/>
			<text x="22.76" y="1182.58" class="st11" v:langID="1066"><v:paragraph v:horizAlign="1"/><v:tabList/>Fog</text>		</g>
		<g id="shape49-24" v:mID="49" v:groupContext="shape" v:layerMember="0" transform="translate(354.96,-885.6)">
			<title>Dynamic connector</title>
			<desc>Sensing data</desc>
			<v:textBlock v:margins="rect(4,4,4,4)"/>
			<v:textRect cx="-7.2" cy="1215.01" width="50.97" height="17.6036"/>
			<path d="M-5.04 1188 L-9.36 1242.02" class="st6"/>
			<rect v:rectContext="textBkgnd" x="-27.7739" y="1210.21" width="41.1479" height="9.59985" class="st8"/>
			<text x="-27.77" y="1217.41" class="st9" v:langID="1066"><v:paragraph v:horizAlign="1"/><v:tabList/>Sensing data</text>		</g>
		<g id="shape105-31" v:mID="105" v:groupContext="shape" v:layerMember="0" transform="translate(473.896,-725.61)">
			<title>Dynamic connector.105</title>
			<desc>Manage</desc>
			<v:textBlock v:margins="rect(4,4,4,4)"/>
			<v:textRect cx="-1.14793E-06" cy="1061.86" width="40" height="17.6036"/>
			<path d="M0 1188 L0 992.01 L-56.3 992.01" class="st12"/>
			<rect v:rectContext="textBkgnd" x="-13.2264" y="1057.06" width="26.4529" height="9.59985" class="st8"/>
			<text x="-13.23" y="1064.26" class="st9" v:langID="1066"><v:paragraph v:horizAlign="1"/><v:tabList/>Manage</text>		</g>
		<g id="group23-39" transform="translate(295.2,-748.609)" v:mID="23" v:groupContext="group">
			<title>Sheet.23</title>
			<g id="shape25-40" v:mID="25" v:groupContext="shape" transform="translate(14.4,0)">
				<title>Sheet.25</title>
				<rect x="0" y="1115.85" width="100.8" height="72.1472" class="st5"/>
			</g>
			<g id="shape24-42" v:mID="24" v:groupContext="shape" transform="translate(0,-10.8221)">
				<title>Sheet.24</title>
				<rect x="0" y="1115.85" width="100.8" height="72.1472" class="st5"/>
			</g>
			<g id="shape22-44" v:mID="22" v:groupContext="shape" v:layerMember="1" transform="translate(14.4,-39.681)">
				<title>Data store 3</title>
				<desc>Message queue</desc>
				<v:custProps>
					<v:cp v:nameU="Cost" v:lbl="Cost" v:type="7" v:format="@" v:langID="1033"/>
					<v:cp v:nameU="Duration" v:lbl="Duration" v:type="2" v:langID="1033"/>
					<v:cp v:nameU="Resources" v:lbl="Resources" v:langID="1033"/>
				</v:custProps>
				<v:userDefs>
					<v:ud v:nameU="Scale" v:val="VT0(1):26"/>
					<v:ud v:nameU="visVersion" v:val="VT0(14):26"/>
				</v:userDefs>
				<v:textBlock v:margins="rect(2,2,2,2)" v:tabSpace="42.5197"/>
				<v:textRect cx="35.4331" cy="1171.77" width="54.64" height="32.4663"/>
				<path d="M0 1188 L70.87 1188 L70.87 1155.53 L0 1155.53 L0 1188 Z" class="st14"/>
				<path d="M8.12 1155.53 L8.12 1188" class="st15"/>
				<path d="M0 1188 L70.87 1188 L70.87 1155.53 L0 1155.53 L0 1188" class="st15"/>
				<text x="13.94" y="1168.17" class="st16" v:langID="1066"><v:paragraph v:horizAlign="1"/><v:tabList/>Message <tspan
							x="20.01" dy="1.2em" class="st17">queue</tspan></text>			</g>
			<g id="shape40-50" v:mID="40" v:groupContext="shape" transform="translate(14.4,-10.8221)">
				<title>Sheet.40</title>
				<desc>Docker container</desc>
				<v:textBlock v:margins="rect(4,4,4,4)"/>
				<v:textRect cx="43.2" cy="1181.15" width="86.4" height="13.708"/>
				<rect x="0" y="1174.29" width="86.4" height="13.708" class="st10"/>
				<text x="8.29" y="1178.15" class="st18" v:langID="1066"><v:paragraph v:horizAlign="1"/><v:tabList/>Docker container<v:newlineChar/></text>			</g>
		</g>
		<g id="group127-53" transform="translate(417.6,-615.668)" v:mID="127" v:groupContext="group">
			<title>Sheet.127</title>
			<g id="shape66-54" v:mID="66" v:groupContext="shape">
				<title>Sheet.66</title>
				<rect x="0" y="1141.27" width="113.386" height="46.7317" class="st5"/>
			</g>
			<g id="shape63-56" v:mID="63" v:groupContext="shape" transform="translate(6.52861,-17.7025)">
				<title>Rectangle.63</title>
				<desc>Fog Controllers</desc>
				<v:userDefs>
					<v:ud v:nameU="visVersion" v:val="VT0(14):26"/>
				</v:userDefs>
				<v:textBlock v:margins="rect(4,4,4,4)" v:tabSpace="42.5197"/>
				<v:textRect cx="50.1643" cy="1179" width="100.33" height="18"/>
				<rect x="0" y="1170" width="100.329" height="18" class="st19"/>
				<text x="12.43" y="1182.6" class="st20" v:langID="1033"><v:paragraph v:horizAlign="1"/><v:tabList/>Fog Controllers</text>			</g>
			<g id="shape84-59" v:mID="84" v:groupContext="shape" transform="translate(14.1732,0)">
				<title>Sheet.84</title>
				<desc>Docker container</desc>
				<v:textBlock v:margins="rect(4,4,4,4)"/>
				<v:textRect cx="42.5197" cy="1187.1" width="85.04" height="1.8"/>
				<rect x="0" y="1186.2" width="85.0394" height="1.8" class="st10"/>
				<text x="7.61" y="1184.1" class="st18" v:langID="1066"><v:paragraph v:horizAlign="1"/><v:tabList/>Docker container<v:newlineChar/></text>			</g>
		</g>
		<g id="shape35-62" v:mID="35" v:groupContext="shape" transform="translate(100.8,-620.696)">
			<title>Sheet.35</title>
			<rect x="0" y="1116.04" width="90" height="71.9558" class="st5"/>
		</g>
		<g id="shape33-64" v:mID="33" v:groupContext="shape" transform="translate(83.2535,-628.371)">
			<title>Sheet.33</title>
			<rect x="0" y="1096.37" width="100.8" height="91.6291" class="st5"/>
		</g>
		<g id="shape136-66" v:mID="136" v:groupContext="shape" v:layerMember="1" transform="translate(94.5071,-641.716)">
			<title>Rectangle.22</title>
			<desc>OpenHAB IoT Platform Nodes</desc>
			<v:userDefs>
				<v:ud v:nameU="visVersion" v:val="VT0(15):26"/>
			</v:userDefs>
			<v:textBlock v:margins="rect(2,2,2,2)"/>
			<v:textRect cx="39.1465" cy="1152.02" width="78.3" height="71.9558"/>
			<rect x="0" y="1116.04" width="78.2929" height="71.9558" class="st2"/>
			<text x="6.45" y="1141.22" class="st16" v:langID="1066"><v:paragraph v:horizAlign="1"/><v:tabList/>OpenHAB IoT <tspan
						x="17.91" dy="1.2em" class="st17">Platform</tspan><tspan class="st17" v:langID="1033"> </tspan><tspan
						x="23.62" dy="1.2em" class="st17" v:langID="1033">Nodes</tspan></text>		</g>
		<g id="shape42-72" v:mID="42" v:groupContext="shape" transform="translate(100.8,-623.04)">
			<title>Sheet.42</title>
			<desc>Docker container</desc>
			<v:textBlock v:margins="rect(4,4,4,4)"/>
			<v:textRect cx="43.2" cy="1181.85" width="86.4" height="12.2908"/>
			<rect x="0" y="1175.71" width="86.4" height="12.2908" class="st10"/>
			<text x="8.29" y="1178.85" class="st18" v:langID="1066"><v:paragraph v:horizAlign="1"/><v:tabList/>Docker container<v:newlineChar/></text>		</g>
		<g id="shape34-75" v:mID="34" v:groupContext="shape" transform="translate(201.6,-628.371)">
			<title>Sheet.34</title>
			<rect x="0" y="1096.37" width="144" height="91.6291" class="st5"/>
		</g>
		<g id="shape129-77" v:mID="129" v:groupContext="shape" v:layerMember="1" transform="translate(216.907,-641.716)">
			<title>Rectangle.22.129</title>
			<desc>OneM2M IoT Platform Nodes</desc>
			<v:userDefs>
				<v:ud v:nameU="visVersion" v:val="VT0(15):26"/>
			</v:userDefs>
			<v:textBlock v:margins="rect(2,2,2,2)"/>
			<v:textRect cx="56.6929" cy="1152.02" width="113.39" height="71.9558"/>
			<rect x="0" y="1116.04" width="113.386" height="71.9558" class="st2"/>
			<text x="24.33" y="1148.42" class="st16" v:langID="1066"><v:paragraph v:horizAlign="1"/><v:tabList/>OneM2M IoT <tspan
						x="18.57" dy="1.2em" class="st17">Platform</tspan><tspan class="st17" v:langID="1033"> </tspan><tspan
						class="st17" v:langID="1033">Nodes</tspan></text>		</g>
		<g id="shape43-83" v:mID="43" v:groupContext="shape" transform="translate(230.4,-628.371)">
			<title>Sheet.43</title>
			<desc>Docker container</desc>
			<v:textBlock v:margins="rect(4,4,4,4)"/>
			<v:textRect cx="43.2" cy="1187.59" width="86.4" height="0.814973"/>
			<rect x="0" y="1187.19" width="86.4" height="0.814973" class="st10"/>
			<text x="8.29" y="1184.59" class="st18" v:langID="1066"><v:paragraph v:horizAlign="1"/><v:tabList/>Docker container<v:newlineChar/></text>		</g>
		<g id="group133-86" transform="translate(558,-615.668)" v:mID="133" v:groupContext="group">
			<title>Sheet.133</title>
			<g id="shape131-87" v:mID="131" v:groupContext="shape">
				<title>Rectangle.22.131</title>
				<v:userDefs>
					<v:ud v:nameU="visVersion" v:val="VT0(15):26"/>
				</v:userDefs>
				<rect x="0" y="1141.27" width="86.4" height="46.7317" class="st2"/>
			</g>
			<g id="shape132-89" v:mID="132" v:groupContext="shape" transform="translate(13.9465,-14.0279)">
				<title>Rectangle.22.132</title>
				<desc>Heapster</desc>
				<v:userDefs>
					<v:ud v:nameU="visVersion" v:val="VT0(15):26"/>
				</v:userDefs>
				<v:textBlock v:margins="rect(4,4,4,4)"/>
				<v:textRect cx="29.2535" cy="1174.89" width="58.51" height="26.2136"/>
				<rect x="0" y="1161.79" width="58.5071" height="26.2136" class="st21"/>
				<text x="7.07" y="1178.49" class="st16" v:langID="1066"><v:paragraph v:horizAlign="1"/><v:tabList/>Heapster</text>			</g>
			<g id="shape46-92" v:mID="46" v:groupContext="shape" transform="translate(3.6,-0.412986)">
				<title>Sheet.46</title>
				<desc>Docker container</desc>
				<v:textBlock v:margins="rect(4,4,4,4)"/>
				<v:textRect cx="43.2" cy="1185.85" width="86.4" height="4.29768"/>
				<rect x="0" y="1183.7" width="86.4" height="4.29768" class="st10"/>
				<text x="8.29" y="1182.85" class="st18" v:langID="1066"><v:paragraph v:horizAlign="1"/><v:tabList/>Docker container<v:newlineChar/></text>			</g>
		</g>
		<g id="group134-95" transform="translate(416.693,-676.653)" v:mID="134" v:groupContext="group">
			<title>Sheet.134</title>
			<g id="shape103-96" v:mID="103" v:groupContext="shape">
				<title>Sheet.103</title>
				<rect x="0" y="1137.14" width="113.386" height="50.8578" class="st5"/>
			</g>
			<g id="shape130-98" v:mID="130" v:groupContext="shape" transform="translate(13.1688,-21.652)">
				<title>Rectangle.22.130</title>
				<desc>Sensor Controllers</desc>
				<v:userDefs>
					<v:ud v:nameU="visVersion" v:val="VT0(15):26"/>
				</v:userDefs>
				<v:textBlock v:margins="rect(4,4,4,4)"/>
				<v:textRect cx="44.0343" cy="1174.35" width="88.07" height="27.3052"/>
				<rect x="0" y="1160.69" width="88.0685" height="27.3052" class="st19"/>
				<text x="27.54" y="1170.75" class="st16" v:langID="1066"><v:paragraph v:horizAlign="1"/><v:tabList/>Sensor <tspan
							x="17.08" dy="1.2em" class="st17" v:langID="1033">Controllers</tspan></text>			</g>
			<g id="shape104-102" v:mID="104" v:groupContext="shape" transform="translate(4.53543,-0.190903)">
				<title>Sheet.104</title>
				<desc>Docker container</desc>
				<v:textBlock v:margins="rect(4,4,4,4)"/>
				<v:textRect cx="54.4252" cy="1185.66" width="108.86" height="4.67713"/>
				<rect x="0" y="1183.32" width="108.85" height="4.67713" class="st10"/>
				<text x="19.51" y="1182.66" class="st18" v:langID="1066"><v:paragraph v:horizAlign="1"/><v:tabList/>Docker container<v:newlineChar/></text>			</g>
		</g>
		<g id="shape139-105" v:mID="139" v:groupContext="shape" transform="translate(115.2,-641.716)">
			<title>Rectangle.22.139</title>
			<desc>Adaptor</desc>
			<v:userDefs>
				<v:ud v:nameU="visVersion" v:val="VT0(15):26"/>
			</v:userDefs>
			<v:textBlock v:margins="rect(4,4,4,4)"/>
			<v:textRect cx="27.8929" cy="1181.85" width="55.79" height="12.2908"/>
			<rect x="0" y="1175.71" width="55.7858" height="12.2908" class="st2"/>
			<text x="11.3" y="1184.85" class="st18" v:langID="1033"><v:paragraph v:horizAlign="1"/><v:tabList/>Adaptor</text>		</g>
		<g id="shape140-108" v:mID="140" v:groupContext="shape" transform="translate(242.986,-641.716)">
			<title>Rectangle.140</title>
			<desc>Adaptor</desc>
			<v:userDefs>
				<v:ud v:nameU="visVersion" v:val="VT0(15):26"/>
			</v:userDefs>
			<v:textBlock v:margins="rect(4,4,4,4)"/>
			<v:textRect cx="27.8929" cy="1181.85" width="55.79" height="12.2908"/>
			<rect x="0" y="1175.71" width="55.7858" height="12.2908" class="st2"/>
			<text x="11.3" y="1184.85" class="st18" v:langID="1033"><v:paragraph v:horizAlign="1"/><v:tabList/>Adaptor</text>		</g>
		<g id="group108-111" transform="translate(127.8,-250.105)" v:mID="108" v:groupContext="group">
			<title>Sheet.108</title>
		</g>
		<g id="group70-112" transform="translate(198,-385.739)" v:mID="70" v:groupContext="group">
			<title>Sheet.70</title>
		</g>
		<g id="group115-113" transform="translate(547.153,-336.807)" v:mID="115" v:groupContext="group">
			<title>Sheet.115</title>
			<g id="shape76-114" v:mID="76" v:groupContext="shape" transform="translate(13.5164,-17.1474)">
				<title>Sheet.76</title>
				<rect x="0" y="1146.04" width="87.2317" height="41.9614" class="st5"/>
			</g>
			<g id="shape156-116" v:mID="156" v:groupContext="shape" transform="translate(22.2793,-29.017)">
				<title>Rectangle.22</title>
				<desc>Heapster</desc>
				<v:userDefs>
					<v:ud v:nameU="visVersion" v:val="VT0(15):26"/>
				</v:userDefs>
				<v:textBlock v:margins="rect(4,4,4,4)"/>
				<v:textRect cx="34.0403" cy="1176.48" width="68.09" height="23.0324"/>
				<rect x="0" y="1164.97" width="68.0807" height="23.0324" class="st21"/>
				<text x="11.86" y="1180.08" class="st16" v:langID="1066"><v:paragraph v:horizAlign="1"/><v:tabList/>Heapster</text>			</g>
			<g id="shape83-119" v:mID="83" v:groupContext="shape" transform="translate(17.1023,-16.1687)">
				<title>Sheet.83</title>
				<desc>Docker container</desc>
				<v:textBlock v:margins="rect(4,4,4,4)"/>
				<v:textRect cx="45.5143" cy="1186.4" width="91.03" height="3.20173"/>
				<rect x="0" y="1184.8" width="91.0286" height="3.20173" class="st10"/>
				<text x="10.6" y="1183.4" class="st18" v:langID="1066"><v:paragraph v:horizAlign="1"/><v:tabList/>Docker container<v:newlineChar/></text>			</g>
		</g>
		<g id="group116-122" transform="translate(388.8,-354.284)" v:mID="116" v:groupContext="group">
			<title>Sheet.116</title>
			<g id="shape79-123" v:mID="79" v:groupContext="shape">
				<title>Sheet.79</title>
				<rect x="0" y="1146.37" width="115.5" height="41.6317" class="st5"/>
			</g>
			<g id="shape157-125" v:mID="157" v:groupContext="shape" transform="translate(10.5,-11.542)">
				<title>Rectangle.22</title>
				<desc>Grafana</desc>
				<v:userDefs>
					<v:ud v:nameU="visVersion" v:val="VT0(15):26"/>
				</v:userDefs>
				<v:textBlock v:margins="rect(4,4,4,4)"/>
				<v:textRect cx="46.5886" cy="1173.87" width="93.18" height="28.2591"/>
				<rect x="0" y="1159.74" width="93.1772" height="28.2591" class="st21"/>
				<text x="27.11" y="1177.47" class="st16" v:langID="1066"><v:paragraph v:horizAlign="1"/><v:tabList/>Grafana</text>			</g>
			<g id="shape81-128" v:mID="81" v:groupContext="shape">
				<title>Sheet.81</title>
				<desc>Docker container</desc>
				<v:textBlock v:margins="rect(4,4,4,4)"/>
				<v:textRect cx="63" cy="1186.87" width="126" height="2.25505"/>
				<rect x="0" y="1185.74" width="126" height="2.25505" class="st10"/>
				<text x="28.09" y="1183.87" class="st18" v:langID="1066"><v:paragraph v:horizAlign="1"/><v:tabList/>Docker container<v:newlineChar/></text>			</g>
		</g>
		<g id="shape80-131" v:mID="80" v:groupContext="shape" transform="translate(554.4,-423.836)">
			<title>Sheet.80</title>
			<desc>Docker container</desc>
			<v:textBlock v:margins="rect(4,4,4,4)"/>
			<v:textRect cx="43.2" cy="1187.59" width="86.4" height="0.814973"/>
			<rect x="0" y="1187.19" width="86.4" height="0.814973" class="st10"/>
			<text x="8.29" y="1184.59" class="st18" v:langID="1066"><v:paragraph v:horizAlign="1"/><v:tabList/>Docker container<v:newlineChar/></text>		</g>
		<g id="shape118-134" v:mID="118" v:groupContext="shape" transform="translate(298.8,-519.97)">
			<title>Sheet.118</title>
			<desc>Cloud</desc>
			<v:textBlock v:margins="rect(4,4,4,4)"/>
			<v:textRect cx="28.8" cy="1173.87" width="57.6" height="28.2591"/>
			<rect x="0" y="1159.74" width="57.6" height="28.2591" class="st10"/>
			<text x="7.33" y="1179.27" class="st22" v:langID="1033"><v:paragraph v:horizAlign="1"/><v:tabList/>Cloud</text>		</g>
		<g id="shape113-137" v:mID="113" v:groupContext="shape" v:layerMember="0" transform="translate(592.2,-513.16)">
			<title>Dynamic connector.113</title>
			<desc>Resource monitored metrics</desc>
			<v:textBlock v:margins="rect(4,4,4,4)"/>
			<v:textRect cx="15.5553" cy="1158.18" width="103.98" height="17.6036"/>
			<path d="M5.4 1188 L9 1085.49" class="st23"/>
			<rect v:rectContext="textBkgnd" x="-31.5241" y="1153.38" width="94.1589" height="9.59985" class="st8"/>
			<text x="-31.52" y="1160.58" class="st9" v:langID="1066"><v:paragraph v:horizAlign="1"/><v:tabList/>Resource  <tspan
						class="st17" v:langID="1033">monitored </tspan>metrics</text>		</g>
		<g id="group142-146" transform="translate(622.8,-885.6)" v:mID="142" v:groupContext="group">
			<title>Sheet.142</title>
			<g id="shape50-147" v:mID="50" v:groupContext="shape" v:layerMember="0" transform="translate(0,-18)">
				<title>Dynamic connector.50</title>
				<path d="M0 1180.8 L36 1180.8" class="st23"/>
			</g>
			<g id="shape87-152" v:mID="87" v:groupContext="shape" transform="translate(50.4,-21.6)">
				<title>Sheet.87</title>
				<desc>Data message</desc>
				<v:textBlock v:margins="rect(4,4,4,4)"/>
				<v:textRect cx="28.8" cy="1184.4" width="57.6" height="7.2"/>
				<rect x="0" y="1180.8" width="57.6" height="7.2" class="st10"/>
				<text x="6.16" y="1186.8" class="st9" v:langID="1033"><v:paragraph v:horizAlign="1"/><v:tabList/>Data message</text>			</g>
			<g id="shape94-155" v:mID="94" v:groupContext="shape" v:layerMember="0">
				<title>Dynamic connector.94</title>
				<path d="M0 1180.8 L36 1180.8" class="st24"/>
			</g>
			<g id="shape123-160" v:mID="123" v:groupContext="shape" transform="translate(50.4,-3.6)">
				<title>Sheet.123</title>
				<desc>Control message</desc>
				<v:textBlock v:margins="rect(4,4,4,4)"/>
				<v:textRect cx="32.4" cy="1184.4" width="64.81" height="7.2"/>
				<rect x="0" y="1180.8" width="64.8" height="7.2" class="st10"/>
				<text x="5.29" y="1186.8" class="st9" v:langID="1033"><v:paragraph v:horizAlign="1"/><v:tabList/>Control message</text>			</g>
			<g id="shape124-163" v:mID="124" v:groupContext="shape" transform="translate(0,-39.6)">
				<title>Rectangle</title>
				<v:userDefs>
					<v:ud v:nameU="visVersion" v:val="VT0(14):26"/>
				</v:userDefs>
				<rect x="0" y="1177.2" width="36" height="10.8" class="st19"/>
			</g>
			<g id="shape125-165" v:mID="125" v:groupContext="shape" transform="translate(50.4,-39.6)">
				<title>Sheet.125</title>
				<desc>Self-implement component</desc>
				<v:textBlock v:margins="rect(4,4,4,4)"/>
				<v:textRect cx="50.4" cy="1184.4" width="100.8" height="7.2"/>
				<rect x="0" y="1180.8" width="100.8" height="7.2" class="st10"/>
				<text x="5.82" y="1186.8" class="st9" v:langID="1033"><v:paragraph v:horizAlign="1"/><v:tabList/>Self-implement component</text>			</g>
		</g>
		<g id="group144-168" transform="translate(105.882,-415.012)" v:mID="144" v:groupContext="group">
			<title>Sheet.144</title>
			<g id="shape60-169" v:mID="60" v:groupContext="shape" v:layerMember="1" transform="translate(2.2277,-29.7054)">
				<title>Data store 3.60</title>
				<desc>Message queue</desc>
				<v:custProps>
					<v:cp v:nameU="Cost" v:lbl="Cost" v:type="7" v:format="@" v:langID="1033"/>
					<v:cp v:nameU="Duration" v:lbl="Duration" v:type="2" v:langID="1033"/>
					<v:cp v:nameU="Resources" v:lbl="Resources" v:langID="1033"/>
				</v:custProps>
				<v:userDefs>
					<v:ud v:nameU="Scale" v:val="VT0(1):26"/>
					<v:ud v:nameU="visVersion" v:val="VT0(14):26"/>
				</v:userDefs>
				<v:textBlock v:margins="rect(2,2,2,2)" v:tabSpace="42.5197"/>
				<v:textRect cx="33.3488" cy="1173.04" width="51.74" height="29.9214"/>
				<path d="M0 1188 L66.7 1188 L66.7 1158.08 L0 1158.08 L0 1188 Z" class="st14"/>
				<path d="M7.48 1158.08 L7.48 1188" class="st15"/>
				<path d="M0 1188 L66.7 1188 L66.7 1158.08 L0 1158.08 L0 1188" class="st15"/>
				<text x="11.86" y="1169.44" class="st16" v:langID="1066"><v:paragraph v:horizAlign="1"/><v:tabList/>Message <tspan
							x="17.92" dy="1.2em" class="st17">queue</tspan></text>			</g>
			<g id="group69-175" v:mID="69" v:groupContext="group">
				<title>Sheet.69</title>
			</g>
		</g>
		<g id="group147-176" transform="translate(230.4,-336.807)" v:mID="147" v:groupContext="group">
			<title>Sheet.147</title>
			<g id="shape88-177" v:mID="88" v:groupContext="shape" transform="translate(0,-2.29605)">
				<title>Sheet.88</title>
				<rect x="0" y="1131.19" width="118.8" height="56.8127" class="st5"/>
			</g>
			<g id="shape146-179" v:mID="146" v:groupContext="shape" v:layerMember="1" transform="translate(10.9134,-22.0522)">
				<title>Rectangle.22</title>
				<desc>Data mining &#38; analyzing</desc>
				<v:userDefs>
					<v:ud v:nameU="visVersion" v:val="VT0(15):26"/>
				</v:userDefs>
				<v:textBlock v:margins="rect(4,4,4,4)"/>
				<v:textRect cx="45.1134" cy="1172.57" width="90.23" height="30.8606"/>
				<rect x="0" y="1157.14" width="90.2268" height="30.8606" class="st19"/>
				<text x="10.18" y="1168.97" class="st16" v:langID="1033"><v:paragraph v:horizAlign="1"/><v:tabList/>Data mining &#38; <tspan
							x="22.4" dy="1.2em" class="st17">analyzing</tspan></text>			</g>
			<g id="shape86-183" v:mID="86" v:groupContext="shape" transform="translate(9.09474,0)">
				<title>Sheet.86</title>
				<desc>Docker container</desc>
				<v:textBlock v:margins="rect(4,4,4,4)"/>
				<v:textRect cx="43.2" cy="1185.7" width="86.4" height="4.5921"/>
				<rect x="0" y="1183.41" width="86.4" height="4.5921" class="st10"/>
				<text x="8.29" y="1182.7" class="st18" v:langID="1066"><v:paragraph v:horizAlign="1"/><v:tabList/>Docker container<v:newlineChar/></text>			</g>
		</g>
		<g id="group149-186" transform="translate(100.8,-415.012)" v:mID="149" v:groupContext="group">
			<title>Sheet.149</title>
			<g id="group110-187" transform="translate(7.99361E-15,-8.09553)" v:mID="110" v:groupContext="group">
				<title>Sheet.110</title>
				<g id="shape61-188" v:mID="61" v:groupContext="shape">
					<title>Sheet.61</title>
					<rect x="0" y="1121.51" width="81.3176" height="66.492" class="st5"/>
				</g>
				<g id="shape85-190" v:mID="85" v:groupContext="shape">
					<title>Sheet.85</title>
					<desc>Docker container</desc>
					<v:textBlock v:margins="rect(4,4,4,4)"/>
					<v:textRect cx="40.6588" cy="1185.84" width="81.32" height="4.32198"/>
					<rect x="0" y="1183.68" width="81.3176" height="4.32198" class="st10"/>
					<text x="5.74" y="1182.84" class="st18" v:langID="1066"><v:paragraph v:horizAlign="1"/><v:tabList/>Docker container<v:newlineChar/></text>				</g>
			</g>
			<g id="shape58-193" v:mID="58" v:groupContext="shape" transform="translate(5.08235,0)">
				<title>Sheet.58</title>
				<rect x="0" y="1121.51" width="81.3176" height="66.492" class="st5"/>
			</g>
			<g id="shape59-195" v:mID="59" v:groupContext="shape" v:layerMember="1" transform="translate(12.3924,-18.2853)">
				<title>Data store 3</title>
				<desc>Message queues</desc>
				<v:custProps>
					<v:cp v:nameU="Cost" v:lbl="Cost" v:type="7" v:format="@" v:langID="1033"/>
					<v:cp v:nameU="Duration" v:lbl="Duration" v:type="2" v:langID="1033"/>
					<v:cp v:nameU="Resources" v:lbl="Resources" v:langID="1033"/>
				</v:custProps>
				<v:userDefs>
					<v:ud v:nameU="Scale" v:val="VT0(1):26"/>
					<v:ud v:nameU="visVersion" v:val="VT0(14):26"/>
				</v:userDefs>
				<v:textBlock v:margins="rect(2,2,2,2)"/>
				<v:textRect cx="33.3488" cy="1173.04" width="51.74" height="29.9214"/>
				<path d="M0 1188 L66.7 1188 L66.7 1158.08 L0 1158.08 L0 1188 Z" class="st14"/>
				<path d="M7.48 1158.08 L7.48 1188" class="st15"/>
				<path d="M0 1188 L66.7 1188 L66.7 1158.08 L0 1158.08 L0 1188" class="st15"/>
				<text x="11.86" y="1169.44" class="st16" v:langID="1066"><v:paragraph v:horizAlign="1"/><v:tabList/>Message <tspan
							x="15.57" dy="1.2em" class="st17">queue</tspan><tspan class="st17" v:langID="1033">s</tspan></text>			</g>
		</g>
		<g id="shape150-202" v:mID="150" v:groupContext="shape" transform="translate(100.8,-415.012)">
			<title>Sheet.150</title>
			<desc>Docker container</desc>
			<v:textBlock v:margins="rect(4,4,4,4)"/>
			<v:textRect cx="43.2" cy="1187.59" width="86.4" height="0.814973"/>
			<rect x="0" y="1187.19" width="86.4" height="0.814973" class="st10"/>
			<text x="8.29" y="1184.59" class="st18" v:langID="1066"><v:paragraph v:horizAlign="1"/><v:tabList/>Docker container<v:newlineChar/></text>		</g>
		<g id="group155-205" transform="translate(233.147,-425.811)" v:mID="155" v:groupContext="group">
			<title>Sheet.155</title>
			<g id="group151-206" v:mID="151" v:groupContext="group">
				<title>Sheet.151</title>
				<g id="shape152-207" v:mID="152" v:groupContext="shape" transform="translate(0,-2.29605)">
					<title>Sheet.152</title>
					<rect x="0" y="1131.19" width="118.8" height="56.8127" class="st5"/>
				</g>
				<g id="shape154-209" v:mID="154" v:groupContext="shape" transform="translate(9.09474,0)">
					<title>Sheet.154</title>
					<desc>Docker container</desc>
					<v:textBlock v:margins="rect(4,4,4,4)"/>
					<v:textRect cx="43.2" cy="1185.7" width="86.4" height="4.5921"/>
					<rect x="0" y="1183.41" width="86.4" height="4.5921" class="st10"/>
					<text x="8.29" y="1182.7" class="st18" v:langID="1066"><v:paragraph v:horizAlign="1"/><v:tabList/>Docker container<v:newlineChar/></text>				</g>
			</g>
			<g id="shape143-212" v:mID="143" v:groupContext="shape" transform="translate(16.2,-14.832)">
				<title>Rectangle.22.143</title>
				<desc>Data Sensing Collector Nodes</desc>
				<v:userDefs>
					<v:ud v:nameU="visVersion" v:val="VT0(15):26"/>
				</v:userDefs>
				<v:textBlock v:margins="rect(4,4,4,4)"/>
				<v:textRect cx="43.2" cy="1168.45" width="86.4" height="39.099"/>
				<rect x="0" y="1148.9" width="86.4" height="39.099" class="st2"/>
				<text x="17.03" y="1165.45" class="st18" v:langID="1033"><v:paragraph v:horizAlign="1"/><v:tabList/>Data Sensing <tspan
							x="10.88" dy="1.2em" class="st17">Collector Nodes</tspan></text>			</g>
		</g>
		<g id="shape167-216" v:mID="167" v:groupContext="shape" transform="translate(405,-440.644)">
			<title>Rectangle.143</title>
			<desc>Data Modeling Translator Nodes</desc>
			<v:userDefs>
				<v:ud v:nameU="visVersion" v:val="VT0(15):26"/>
			</v:userDefs>
			<v:textBlock v:margins="rect(4,4,4,4)"/>
			<v:textRect cx="43.2" cy="1168.45" width="86.4" height="39.099"/>
			<rect x="0" y="1148.9" width="86.4" height="39.099" class="st2"/>
			<text x="13.23" y="1165.45" class="st18" v:langID="1033"><v:paragraph v:horizAlign="1"/><v:tabList/>Data Modeling <tspan
						x="8.38" dy="1.2em" class="st17">Translator Nodes</tspan></text>		</g>
		<g id="group168-220" transform="translate(94.7368,-338.657)" v:mID="168" v:groupContext="group">
			<title>Sheet.168</title>
			<g id="shape169-221" v:mID="169" v:groupContext="shape">
				<title>Sheet.169</title>
				<rect x="0" y="1128.89" width="113.386" height="59.1088" class="st5"/>
			</g>
			<g id="shape170-223" v:mID="170" v:groupContext="shape" transform="translate(6.52861,-22.391)">
				<title>Rectangle.63</title>
				<desc>Cloud Controllers Nodes</desc>
				<v:userDefs>
					<v:ud v:nameU="visVersion" v:val="VT0(14):26"/>
				</v:userDefs>
				<v:textBlock v:margins="rect(4,4,4,4)" v:tabSpace="42.5197"/>
				<v:textRect cx="50.1643" cy="1173.87" width="100.33" height="28.2591"/>
				<rect x="0" y="1159.74" width="100.329" height="28.2591" class="st19"/>
				<text x="6.94" y="1170.27" class="st20" v:langID="1033"><v:paragraph v:horizAlign="1"/><v:tabList/>Cloud Controllers <tspan
							x="34.35" dy="1.2em" class="st17">Nodes</tspan></text>			</g>
			<g id="shape171-227" v:mID="171" v:groupContext="shape" transform="translate(14.1732,0)">
				<title>Sheet.171</title>
				<desc>Docker container</desc>
				<v:textBlock v:margins="rect(4,4,4,4)"/>
				<v:textRect cx="42.5197" cy="1186.86" width="85.04" height="2.27674"/>
				<rect x="0" y="1185.72" width="85.0394" height="2.27674" class="st10"/>
				<text x="7.61" y="1183.86" class="st18" v:langID="1066"><v:paragraph v:horizAlign="1"/><v:tabList/>Docker container<v:newlineChar/></text>			</g>
		</g>
		<g id="group172-230" transform="translate(278.28,-900)" v:mID="172" v:groupContext="group">
			<title>Sheet.172</title>
			<g id="shape8-231" v:mID="8" v:groupContext="shape">
				<title>Sheet.8</title>
				<rect x="0" y="1116" width="129.6" height="72" class="st5"/>
			</g>
			<g id="shape1-233" v:mID="1" v:groupContext="shape" transform="translate(15.3071,-20.4803)">
				<title>Rounded rectangle</title>
				<desc>Simulated Sensors</desc>
				<v:userDefs>
					<v:ud v:nameU="visVersion" v:val="VT0(14):26"/>
				</v:userDefs>
				<v:textBlock v:margins="rect(4,4,4,4)"/>
				<v:textRect cx="49.4929" cy="1165.28" width="98.99" height="45.4394"/>
				<path d="M84.81 1188 A14.1733 14.1733 -180 0 0 98.99 1173.83 L98.99 1156.73 A14.1733 14.1733 -180 0 0 84.81 1142.56
							 L14.17 1142.56 A14.1733 14.1733 -180 0 0 -0 1156.73 L0 1173.83 A14.1733 14.1733 -180 0 0 14.17 1188
							 L84.81 1188 Z" class="st19"/>
				<text x="4.81" y="1168.88" class="st16" v:langID="1033"><v:paragraph v:horizAlign="1"/><v:tabList/>Simulated S<tspan
							class="st17" v:langID="1066">ensor</tspan>s</text>			</g>
			<g id="shape16-237" v:mID="16" v:groupContext="shape" transform="translate(43.2,0)">
				<title>Sheet.16</title>
				<desc>Docker container</desc>
				<v:textBlock v:margins="rect(4,4,4,4)"/>
				<v:textRect cx="43.2" cy="1181.16" width="86.4" height="13.68"/>
				<rect x="0" y="1174.32" width="86.4" height="13.68" class="st10"/>
				<text x="8.29" y="1178.16" class="st18" v:langID="1066"><v:paragraph v:horizAlign="1"/><v:tabList/>Docker container<v:newlineChar/></text>			</g>
		</g>
		<g id="group173-240" transform="translate(288,-885.6)" v:mID="173" v:groupContext="group">
			<title>Sheet.173</title>
			<g id="shape174-241" v:mID="174" v:groupContext="shape">
				<title>Sheet.174</title>
				<rect x="0" y="1116" width="129.6" height="72" class="st5"/>
			</g>
			<g id="shape175-243" v:mID="175" v:groupContext="shape" transform="translate(15.3071,-20.4803)">
				<title>Rounded rectangle</title>
				<desc>Simulated Sensors</desc>
				<v:userDefs>
					<v:ud v:nameU="visVersion" v:val="VT0(14):26"/>
				</v:userDefs>
				<v:textBlock v:margins="rect(4,4,4,4)"/>
				<v:textRect cx="49.4929" cy="1165.28" width="98.99" height="45.4394"/>
				<path d="M84.81 1188 A14.1733 14.1733 -180 0 0 98.99 1173.83 L98.99 1156.73 A14.1733 14.1733 -180 0 0 84.81 1142.56
							 L14.17 1142.56 A14.1733 14.1733 -180 0 0 -0 1156.73 L0 1173.83 A14.1733 14.1733 -180 0 0 14.17 1188
							 L84.81 1188 Z" class="st19"/>
				<text x="4.81" y="1168.88" class="st16" v:langID="1033"><v:paragraph v:horizAlign="1"/><v:tabList/>Simulated S<tspan
							class="st17" v:langID="1066">ensor</tspan>s</text>			</g>
			<g id="shape176-247" v:mID="176" v:groupContext="shape" transform="translate(43.2,0)">
				<title>Sheet.176</title>
				<desc>Docker container</desc>
				<v:textBlock v:margins="rect(4,4,4,4)"/>
				<v:textRect cx="43.2" cy="1181.16" width="86.4" height="13.68"/>
				<rect x="0" y="1174.32" width="86.4" height="13.68" class="st10"/>
				<text x="8.29" y="1178.16" class="st18" v:langID="1066"><v:paragraph v:horizAlign="1"/><v:tabList/>Docker container<v:newlineChar/></text>			</g>
		</g>
		<g id="shape177-250" v:mID="177" v:groupContext="shape" v:layerMember="0" transform="translate(134.259,-604.8)">
			<title>Dynamic connector.177</title>
			<path d="M7.2 1188 L7.2 1309.85" class="st25"/>
		</g>
		<g id="shape178-256" v:mID="178" v:groupContext="shape" v:layerMember="0" transform="translate(174.808,-447.606)">
			<title>Dynamic connector.178</title>
			<path d="M0 1180.8 L46.28 1180.8" class="st26"/>
		</g>
		<g id="shape179-262" v:mID="179" v:groupContext="shape" v:layerMember="0" transform="translate(351.947,-448.166)">
			<title>Dynamic connector.179</title>
			<path d="M0 1180.8 L24.79 1180.8" class="st26"/>
		</g>
		<g id="shape180-267" v:mID="180" v:groupContext="shape" v:layerMember="0" transform="translate(507.6,-454.156)">
			<title>Dynamic connector.180</title>
			<path d="M0 1186.79 L13.5 1186.79 L13.5 1174.81 L32.13 1174.81" class="st26"/>
		</g>
		<g id="shape185-272" v:mID="185" v:groupContext="shape" v:layerMember="1" transform="translate(561.44,-448.372)">
			<title>Database</title>
			<v:custProps>
				<v:cp v:nameU="Cost" v:lbl="Cost" v:type="7" v:format="@" v:langID="1033"/>
				<v:cp v:nameU="Duration" v:lbl="Duration" v:type="2" v:langID="1033"/>
				<v:cp v:nameU="Resources" v:lbl="Resources" v:langID="1033"/>
			</v:custProps>
			<v:userDefs>
				<v:ud v:nameU="visVersion" v:val="VT0(14):26"/>
			</v:userDefs>
			<path d="M0 1138.13 L0 1182.24 A28.8 5.76 -180 1 0 57.6 1182.24 L57.6 1138.13 A28.8 5.76 -180 1 0 -0 1138.13 Z"
					class="st14"/>
			<path d="M0 1138.13 L0 1182.24 A28.8 5.76 -180 1 0 57.6 1182.24 L57.6 1138.13 A28.8 5.76 -180 1 0 -0 1138.13"
					class="st15"/>
			<path d="M0 1138.13 A28.8 5.76 -180 1 0 57.6 1138.13" class="st15"/>
			<path d="M0 1141.01 A28.8 5.76 -180 1 0 57.6 1141.01" class="st15"/>
			<path d="M0 1143.89 A28.8 5.76 -180 1 0 57.6 1143.89" class="st15"/>
		</g>
		<g id="shape73-278" v:mID="73" v:groupContext="shape" v:layerMember="1" transform="translate(571.453,-434.97)">
			<title>Database.73</title>
			<desc>InfluxDB</desc>
			<v:custProps>
				<v:cp v:nameU="Cost" v:lbl="Cost" v:type="7" v:format="@" v:langID="1033"/>
				<v:cp v:nameU="Duration" v:lbl="Duration" v:type="2" v:langID="1033"/>
				<v:cp v:nameU="Resources" v:lbl="Resources" v:langID="1033"/>
			</v:custProps>
			<v:userDefs>
				<v:ud v:nameU="visVersion" v:val="VT0(14):26"/>
			</v:userDefs>
			<v:textBlock v:margins="rect(2,2,2,2)" v:tabSpace="42.5197"/>
			<v:textRect cx="28.8" cy="1168.83" width="57.61" height="38.3482"/>
			<path d="M0 1138.13 L0 1182.24 A28.8 5.76 -180 1 0 57.6 1182.24 L57.6 1138.13 A28.8 5.76 -180 1 0 -0 1138.13 Z"
					class="st14"/>
			<path d="M0 1138.13 L0 1182.24 A28.8 5.76 -180 1 0 57.6 1182.24 L57.6 1138.13 A28.8 5.76 -180 1 0 -0 1138.13"
					class="st15"/>
			<path d="M0 1138.13 A28.8 5.76 -180 1 0 57.6 1138.13" class="st15"/>
			<path d="M0 1141.01 A28.8 5.76 -180 1 0 57.6 1141.01" class="st15"/>
			<path d="M0 1143.89 A28.8 5.76 -180 1 0 57.6 1143.89" class="st15"/>
			<text x="8.22" y="1165.23" class="st16" v:langID="1066"><v:paragraph v:horizAlign="1"/><v:tabList/>InfluxDB<v:newlineChar/></text>		</g>
		<g id="shape190-285" v:mID="190" v:groupContext="shape" transform="translate(410.4,-425.811)">
			<title>Sheet.190</title>
			<desc>Docker container</desc>
			<v:textBlock v:margins="rect(4,4,4,4)"/>
			<v:textRect cx="43.2" cy="1187.59" width="86.4" height="0.814973"/>
			<rect x="0" y="1187.19" width="86.4" height="0.814973" class="st10"/>
			<text x="8.29" y="1184.59" class="st18" v:langID="1066"><v:paragraph v:horizAlign="1"/><v:tabList/>Docker container<v:newlineChar/></text>		</g>
		<g id="shape191-288" v:mID="191" v:groupContext="shape" v:layerMember="0" transform="translate(603.472,-388.856)">
			<title>Dynamic connector.191</title>
			<path d="M0 1188 L0 1164.33 L48.94 1164.33 L48.94 1109.51 L39.94 1109.51" class="st27"/>
		</g>
		<g id="shape192-294" v:mID="192" v:groupContext="shape" v:layerMember="0" transform="translate(597.6,-421.531)">
			<title>Dynamic connector.192</title>
			<path d="M0 1188 L0 1201.5 L-311.17 1201.5 L-311.17 1207.75" class="st26"/>
		</g>
		<g id="shape193-299" v:mID="193" v:groupContext="shape" v:layerMember="0" transform="translate(597.6,-421.531)">
			<title>Dynamic connector.193</title>
			<path d="M0 1188 L0 1211.67 L-46.6 1211.67 L-46.6 1229.58 L-93.06 1229.58" class="st26"/>
		</g>
	</g>
</svg>
